HIERARCHY
ROOT Hips
{
  OFFSET 59.2963 92.8754 6.087
  CHANNELS 6 Xposition Yposition Zposition Zrotation Xrotation Yrotation
  JOINT spine
  {
    OFFSET 0 7.4756 0.429885
    CHANNELS 3 Zrotation Xrotation Yrotation
    JOINT spine1
    {
      OFFSET 0 9.92301 0
      CHANNELS 3 Zrotation Xrotation Yrotation
      JOINT spine2
      {
        OFFSET 0 9.50804 0
        CHANNELS 3 Zrotation Xrotation Yrotation
        JOINT Neck
        {
          OFFSET 0 24.4111 1.16384
          CHANNELS 3 Zrotation Xrotation Yrotation
          JOINT Head
          {
            OFFSET 0 7.37523 0
            CHANNELS 3 Zrotation Xrotation Yrotation
            End Site
            {
              OFFSET 0 17.8522 -5.88741
            }
          }
        }
        JOINT RightShoulder
        {
          OFFSET -4.00356 10.2679 -0.557468
          CHANNELS 3 Zrotation Xrotation Yrotation
          JOINT RightArm
          {
            OFFSET 0 13.4673 0
            CHANNELS 3 Zrotation Xrotation Yrotation
            JOINT RightArmRoll
            {
              OFFSET 0 6.79858 0
              CHANNELS 3 Zrotation Xrotation Yrotation
              JOINT RightForeArm
              {
                OFFSET 0 19.8018 0
                CHANNELS 3 Zrotation Xrotation Yrotation
                JOINT RightForeArmRoll
                {
                  OFFSET 0 7.62906 0
                  CHANNELS 3 Zrotation Xrotation Yrotation
                  JOINT RightHand
                  {
                    OFFSET 0 15.3098 0
                    CHANNELS 3 Zrotation Xrotation Yrotation
                    End Site
                    {
                      OFFSET 0 0 0
                    }
                  }
                }
              }
            }
          }
        }
        JOINT LeftShoulder
        {
          OFFSET 4.00356 10.2679 -0.557468
          CHANNELS 3 Zrotation Xrotation Yrotation
          JOINT LeftArm
          {
            OFFSET 0 13.4673 0
            CHANNELS 3 Zrotation Xrotation Yrotation
            JOINT LeftArmRoll
            {
              OFFSET 0 6.79858 0
              CHANNELS 3 Zrotation Xrotation Yrotation
              JOINT LeftForeArm
              {
                OFFSET 0 19.8018 0
                CHANNELS 3 Zrotation Xrotation Yrotation
                JOINT LeftForeArmRoll
                {
                  OFFSET 0 7.62906 0
                  CHANNELS 3 Zrotation Xrotation Yrotation
                  JOINT LeftHand
                  {
                    OFFSET 0 15.3098 0
                    CHANNELS 3 Zrotation Xrotation Yrotation
                    End Site
                    {
                      OFFSET 0 0 0
                    }
                  }
                }
              }
            }
          }
        }
      }
    }
  }
  JOINT RightUpLeg
  {
    OFFSET -6.62609 -1.21505 -1.01927
    CHANNELS 3 Zrotation Xrotation Yrotation
    JOINT RightUpLegRoll
    {
      OFFSET 0 17.9517 0
      CHANNELS 3 Zrotation Xrotation Yrotation
      JOINT RightLeg
      {
        OFFSET 0 -22.2304 0
        CHANNELS 3 Zrotation Xrotation Yrotation
        JOINT RightLegRoll
        {
          OFFSET 0 22.3032 0
          CHANNELS 3 Zrotation Xrotation Yrotation
          JOINT RightFoot
          {
            OFFSET 0 18.5636 0
            CHANNELS 3 Zrotation Xrotation Yrotation
            JOINT RightToeBase
            {
              OFFSET 0 15.5183 0
              CHANNELS 3 Zrotation Xrotation Yrotation
              End Site
              {
                OFFSET 0.00657761 7.51539 -0.866262
              }
            }
          }
        }
      }
    }
  }
  JOINT LeftUpLeg
  {
    OFFSET 6.62609 -1.21505 -1.01927
    CHANNELS 3 Zrotation Xrotation Yrotation
    JOINT LeftUpLegRoll
    {
      OFFSET 0 17.9518 0
      CHANNELS 3 Zrotation Xrotation Yrotation
      JOINT LeftLeg
      {
        OFFSET 0 22.2303 0
        CHANNELS 3 Zrotation Xrotation Yrotation
        JOINT LeftLegRoll
        {
          OFFSET 0 22.5093 0
          CHANNELS 3 Zrotation Xrotation Yrotation
          JOINT LeftFoot
          {
            OFFSET 0 18.3575 0
            CHANNELS 3 Zrotation Xrotation Yrotation
            JOINT LeftToeBase
            {
              OFFSET 0 15.5183 0
              CHANNELS 3 Zrotation Xrotation Yrotation
              End Site
              {
                OFFSET -0.029478 7.51539 -0.866262
              }
            }
          }
        }
      }
    }
  }
}
MOTION
Frames: 13
Frame Time: 0.00208333
59.0038 93.0059 5.74894 0.843456 -10.0167 -3.83545 0.0285445 0.114765 0.160281 0.0545497 4.23313 0.316826 0.050835 5.8782 0.316327 -14.3883 5.93494 -0.119537 13.8702 0.484023 -1.77511 60.2527 -0.605447 -0.554061 129.313 31.0766 -56.6823 1.99734e-007 -7.15617e-008 -1.66231e-006 9.85623 75.4938 -9.35026 -4.50263e-006 -6.1726e-008 -3.0036 8.03005 -4.95136 0.697644 -78.7054 -2.23964 3.1664 -108.378 33.1233 38.1479 -1.30995e-005 7.77285e-008 5.4432e-006 -16.8153 79.4582 19.7489 1.84816e-006 3.3911e-007 3 -8.02899 -4.95146 -0.69768 175.049 2.47159 2.56326 180 7.01494e-015 178.714 179.216 23.3158 179.191 -4.11128e-006 -4.01492e-006 0.382365 -18.7263 67.9583 19.514 8.17709 27.0827 -0.977347 175.834 -4.24956 4.29562 4.54188e-006 -4.6773e-006 -1.15828 -3.81522 -9.40195 -0.0787769 7.96022e-007 4.09513e-006 -0.137415 20.0529 69.8354 -21.168 -8.13649 25.2327 3.48773 
59.0082 93.0056 5.74923 0.841232 -10.0034 -3.83463 0.028864 0.107374 0.158442 0.0552791 4.21822 0.313118 0.0516073 5.86329 0.312593 -14.3703 6.03098 -0.100409 13.8609 0.422803 -1.75722 60.2435 -0.609471 -0.555427 129.222 31.1048 -56.6518 1.99734e-007 -7.15617e-008 -1.66231e-006 9.82681 75.5127 -9.33242 -4.50263e-006 -6.1726e-008 -3.0036 8.03005 -4.95136 0.697644 -78.7188 -2.23191 3.16443 -108.24 33.1413 37.8568 -1.30995e-005 7.77285e-008 5.4432e-006 -16.8294 79.4684 19.764 1.84816e-006 3.3911e-007 3 -8.02899 -4.95146 -0.69768 175.051 2.48291 2.56178 180 7.01494e-015 178.714 179.214 23.3118 179.192 -4.11128e-006 -4.01492e-006 0.38238 -18.7249 67.9567 19.5126 8.17685 27.0798 -0.981151 175.838 -4.23549 4.29546 4.54188e-006 -4.6773e-006 -1.15826 -3.81491 -9.40259 -0.0787761 7.96022e-007 4.09513e-006 -0.137415 20.0545 69.8371 -21.1698 -8.13649 25.2327 3.48773 
59.0159 93.0074 5.76151 0.838967 -9.99059 -3.8341 0.0291816 0.100174 0.156735 0.0560251 4.2037 0.309673 0.0523931 5.84877 0.309122 -14.3526 6.12452 -0.0818737 13.8522 0.364995 -1.74004 60.2347 -0.613427 -0.5568 129.131 31.1331 -56.6146 1.99734e-007 -7.15617e-008 -1.66231e-006 9.79523 75.5337 -9.31396 -4.50263e-006 -6.1726e-008 -3.0036 8.03005 -4.95136 0.697644 -78.7318 -2.22424 3.16246 -108.104 33.1616 37.5576 -1.30995e-005 7.77285e-008 5.4432e-006 -16.8449 79.4762 19.7788 1.84816e-006 3.3911e-007 3 -8.02899 -4.95146 -0.69768 175.054 2.49356 2.56027 180 7.01494e-015 178.714 179.212 23.3077 179.193 -4.11128e-006 -4.01492e-006 0.382396 -18.7236 67.9552 19.5112 8.17659 27.0768 -0.984991 175.841 -4.22222 4.29529 4.54188e-006 -4.6773e-006 -1.15824 -3.81458 -9.40293 -0.0787542 7.96022e-007 4.09513e-006 -0.137415 20.056 69.8386 -21.1714 -8.13649 25.2327 3.48773 
59.0127 93.008 5.7588 0.836687 -9.97863 -3.8339 0.0294854 0.0933009 0.155194 0.0567621 4.18983 0.306561 0.053166 5.83491 0.305985 -14.3353 6.21374 -0.0642503 13.8442 0.312028 -1.72385 60.2261 -0.617536 -0.558283 129.039 31.161 -56.5702 1.99734e-007 -7.15617e-008 -1.66231e-006 9.75972 75.5573 -9.29373 -4.50263e-006 -6.1726e-008 -3.0036 8.03005 -4.95136 0.697644 -78.7438 -2.21694 3.16054 -107.969 33.1849 37.2516 -1.30995e-005 7.77285e-008 5.4432e-006 -16.8616 79.4812 19.793 1.84816e-006 3.3911e-007 3 -8.02899 -4.95146 -0.69768 175.056 2.50335 2.55872 180 7.01494e-015 178.714 179.21 23.3034 179.194 -4.11128e-006 -4.01492e-006 0.382411 -18.7224 67.9538 19.5098 8.17635 27.0739 -0.988782 175.844 -4.21008 4.29509 4.54188e-006 -4.6773e-006 -1.15823 -3.81424 -9.40292 -0.0787087 7.96022e-007 4.09513e-006 -0.137415 20.0574 69.84 -21.1729 -8.13649 25.2327 3.48773 
59.0184 93.008 5.75209 0.834418 -9.96774 -3.83412 0.0297634 0.0868897 0.153854 0.0574645 4.1769 0.303852 0.0538998 5.82198 0.303253 -14.3183 6.29678 -0.047859 13.837 0.265331 -1.7089 60.2174 -0.622016 -0.55998 128.948 31.1878 -56.518 1.99734e-007 -7.15617e-008 -1.66231e-006 9.71846 75.5843 -9.27054 -4.50263e-006 -6.1726e-008 -3.0036 8.03005 -4.95136 0.697644 -78.7543 -2.21031 3.15877 -107.838 33.2116 36.9402 -1.30995e-005 7.77285e-008 5.4432e-006 -16.8792 79.4829 19.8061 1.84816e-006 3.3911e-007 3 -8.02899 -4.95146 -0.69768 175.059 2.51205 2.55714 180 7.01494e-015 178.714 179.208 23.2992 179.195 -4.11128e-006 -4.01492e-006 0.382427 -18.7213 67.9525 19.5086 8.1761 27.0711 -0.992442 175.847 -4.19938 4.29485 4.54188e-006 -4.6773e-006 -1.15821 -3.81392 -9.40247 -0.0786371 7.96022e-007 4.09513e-006 -0.137415 20.0587 69.8413 -21.1743 -8.13649 25.2327 3.48773 
59.0164 93.0081 5.75488 0.832187 -9.95815 -3.83482 0.0300037 0.0810765 0.152751 0.058107 4.16518 0.301617 0.0545681 5.81026 0.300997 -14.3018 6.37181 -0.0330206 13.8305 0.226329 -1.69549 60.2084 -0.627088 -0.561994 128.858 31.2127 -56.4571 1.99734e-007 -7.15617e-008 -1.66231e-006 9.66965 75.6154 -9.24318 -4.50263e-006 -6.1726e-008 -3.0036 8.03005 -4.95136 0.697644 -78.7625 -2.20465 3.1572 -107.711 33.2424 36.6247 -1.30995e-005 7.77285e-008 5.4432e-006 -16.8976 79.4808 19.8176 1.84816e-006 3.3911e-007 3 -8.02899 -4.95146 -0.69768 175.061 2.51946 2.55551 180 7.01494e-015 178.714 179.206 23.295 179.195 -4.11128e-006 -4.01492e-006 0.382442 -18.7203 67.9513 19.5075 8.17587 27.0685 -0.995887 175.85 -4.19044 4.29455 4.54188e-006 -4.6773e-006 -1.1582 -3.81363 -9.40151 -0.0785369 7.96022e-007 4.09513e-006 -0.137415 20.0598 69.8424 -21.1754 -8.13649 25.2327 3.48773 
59.0177 93.0102 5.76381 0.830022 -9.95012 -3.83606 0.0301945 0.075997 0.151918 0.0586641 4.15494 0.299924 0.0551447 5.80002 0.299287 -14.2856 6.43699 -0.0200559 13.8248 0.196453 -1.68387 60.1989 -0.632972 -0.564428 128.768 31.2353 -56.387 1.99734e-007 -7.15617e-008 -1.66231e-006 9.61146 75.6513 -9.21044 -4.50263e-006 -6.1726e-008 -3.0036 8.03005 -4.95136 0.697644 -78.7679 -2.20027 3.15591 -107.591 33.2779 36.3064 -1.30995e-005 7.77285e-008 5.4432e-006 -16.9166 79.4745 19.8271 1.84816e-006 3.3911e-007 3 -8.02899 -4.95146 -0.69768 175.064 2.52538 2.55386 180 7.01494e-015 178.714 179.205 23.291 179.196 -4.11128e-006 -4.01492e-006 0.382457 -18.7195 67.9504 19.5066 8.17566 27.066 -0.999034 175.853 -4.18358 4.29419 4.54188e-006 -4.6773e-006 -1.15818 -3.81339 -9.39998 -0.0784054 7.96022e-007 4.09513e-006 -0.137415 20.0608 69.8434 -21.1764 -8.13649 25.2327 3.48773 
59.0191 93.0111 5.76258 0.827947 -9.94389 -3.83792 0.0303239 0.071787 0.151391 0.0591105 4.14647 0.298844 0.0556036 5.79154 0.298194 -14.2698 6.49047 -0.00928629 13.8199 0.17713 -1.67433 60.1886 -0.639887 -0.567384 128.681 31.2548 -56.307 1.99734e-007 -7.15617e-008 -1.66231e-006 9.54202 75.6927 -9.17107 -4.50263e-006 -6.1726e-008 -3.0036 8.03005 -4.95136 0.697644 -78.77 -2.19748 3.15497 -107.478 33.3188 35.9866 -1.30995e-005 7.77285e-008 5.4432e-006 -16.936 79.4635 19.8343 1.84816e-006 3.3911e-007 3 -8.02899 -4.95146 -0.69768 175.066 2.52959 2.55217 180 7.01494e-015 178.714 179.205 23.2873 179.196 -4.11128e-006 -4.01492e-006 0.382473 -18.7188 67.9496 19.5059 8.17547 27.0639 -1.0018 175.855 -4.17911 4.29375 4.54188e-006 -4.6773e-006 -1.15817 -3.81322 -9.39779 -0.0782401 7.96022e-007 4.09513e-006 -0.137415 20.0615 69.8441 -21.1772 -8.13649 25.2327 3.48773 
59.0196 93.0122 5.76691 0.825928 -9.93933 -3.84052 0.0303943 0.068251 0.151197 0.059482 4.13935 0.298432 0.0559911 5.78443 0.297771 -14.2549 6.53418 -0.000754372 13.8164 0.168534 -1.66719 60.1777 -0.6474 -0.570619 128.594 31.2708 -56.218 1.99734e-007 -7.15617e-008 -1.66231e-006 9.46335 75.7382 -9.12647 -4.50263e-006 -6.1726e-008 -3.0036 8.03005 -4.95136 0.697644 -78.7702 -2.1956 3.15423 -107.368 33.3647 35.6604 -1.30995e-005 7.77285e-008 5.4432e-006 -16.9598 79.4485 19.8426 1.84816e-006 3.3911e-007 3 -8.02899 -4.95146 -0.69768 175.068 2.53218 2.5504 180 7.01494e-015 178.714 179.205 23.2836 179.196 -4.11128e-006 -4.01492e-006 0.382488 -18.7184 67.9491 19.5054 8.17529 27.062 -1.00432 175.857 -4.17711 4.29318 4.54188e-006 -4.6773e-006 -1.15816 -3.81317 -9.3946 -0.0780255 7.96022e-007 4.09513e-006 -0.137415 20.0619 69.8445 -21.1777 -8.13649 25.2327 3.48773 
59.0283 93.0214 5.76883 0.823908 -9.93606 -3.8439 0.0304214 0.0650885 0.151315 0.0598344 4.133 0.298646 0.056372 5.77807 0.297974 -14.2411 6.57167 0.00587807 13.8147 0.16914 -1.66238 60.1663 -0.654939 -0.573833 128.508 31.2837 -56.1213 1.99734e-007 -7.15617e-008 -1.66231e-006 9.379 75.7861 -9.07906 -4.50263e-006 -6.1726e-008 -3.0036 8.03005 -4.95136 0.697644 -78.77 -2.1938 3.15351 -107.259 33.4145 35.3226 -1.30995e-005 7.77285e-008 5.4432e-006 -16.9909 79.4304 19.8551 1.84816e-006 3.3911e-007 3 -8.02899 -4.95146 -0.69768 175.07 2.53345 2.5485 180 7.01494e-015 178.714 179.206 23.2799 179.196 -4.11128e-006 -4.01492e-006 0.382503 -18.7181 67.9488 19.5051 8.17512 27.0601 -1.00681 175.859 -4.17727 4.29247 4.54188e-006 -4.6773e-006 -1.15814 -3.81324 -9.39022 -0.077753 7.96022e-007 4.09513e-006 -0.137415 20.062 69.8446 -21.1777 -8.13649 25.2327 3.48773 
59.0294 93.0186 5.75863 0.821882 -9.93396 -3.84796 0.0304132 0.0622783 0.151709 0.0601728 4.12736 0.299412 0.0567475 5.77243 0.29873 -14.2281 6.60352 0.0108615 13.8145 0.177834 -1.65958 60.1548 -0.662516 -0.577049 128.423 31.2941 -56.017 1.99734e-007 -7.15617e-008 -1.66231e-006 9.28939 75.8364 -9.02905 -4.50263e-006 -6.1726e-008 -3.0036 8.03005 -4.95136 0.697644 -78.7694 -2.19213 3.1528 -107.15 33.4679 34.9741 -1.30995e-005 7.77285e-008 5.4432e-006 -17.028 79.4095 19.8708 1.84816e-006 3.3911e-007 3 -8.02899 -4.95146 -0.69768 175.072 2.53351 2.54649 180 7.01494e-015 178.714 179.207 23.2761 179.195 -4.11128e-006 -4.01492e-006 0.382518 -18.7179 67.9487 19.5049 8.17495 27.0582 -1.00926 175.861 -4.17934 4.29164 4.54188e-006 -4.6773e-006 -1.15813 -3.81341 -9.38486 -0.0774309 7.96022e-007 4.09513e-006 -0.137415 20.0617 69.8443 -21.1774 -8.13649 25.2327 3.48773 
59.0236 93.0108 5.76222 0.819845 -9.9329 -3.85257 0.0303774 0.0597991 0.152343 0.060502 4.12239 0.300659 0.0571188 5.76746 0.299967 -14.2159 6.63029 0.0144466 13.8155 0.193499 -1.65844 60.1431 -0.670145 -0.580287 128.338 31.3026 -55.9052 1.99734e-007 -7.15617e-008 -1.66231e-006 9.19493 75.889 -8.97665 -4.50263e-006 -6.1726e-008 -3.0036 8.03005 -4.95136 0.697644 -78.7682 -2.19063 3.15211 -107.041 33.5243 34.6158 -1.30995e-005 7.77285e-008 5.4432e-006 -17.0695 79.3856 19.8883 1.84816e-006 3.3911e-007 3 -8.02899 -4.95146 -0.69768 175.074 2.53249 2.5444 180 7.01494e-015 178.714 179.208 23.2723 179.195 -4.11128e-006 -4.01492e-006 0.382533 -18.7179 67.9486 19.5049 8.17478 27.0564 -1.01169 175.863 -4.18303 4.29072 4.54188e-006 -4.6773e-006 -1.15811 -3.81363 -9.37871 -0.077067 7.96022e-007 4.09513e-006 -0.137415 20.0612 69.8437 -21.1769 -8.13649 25.2327 3.48773 
59.0279 93.0146 5.77102 0.817791 -9.93276 -3.85765 0.0303218 0.0576294 0.15318 0.0608269 4.11805 0.302312 0.0574872 5.76312 0.301611 -14.2041 6.65258 0.0168841 13.8175 0.215019 -1.65864 60.1315 -0.677835 -0.583572 128.253 31.3095 -55.7862 1.99734e-007 -7.15617e-008 -1.66231e-006 9.09605 75.9441 -8.92209 -4.50263e-006 -6.1726e-008 -3.0036 8.03005 -4.95136 0.697644 -78.7664 -2.18933 3.15145 -106.934 33.5835 34.2484 -1.30995e-005 7.77285e-008 5.4432e-006 -17.1141 79.359 19.9068 1.84816e-006 3.3911e-007 3 -8.02899 -4.95146 -0.69768 175.076 2.53051 2.54224 180 7.01494e-015 178.714 179.209 23.2683 179.194 -4.11128e-006 -4.01492e-006 0.382548 -18.718 67.9487 19.5049 8.17461 27.0546 -1.01409 175.864 -4.1881 4.28974 4.54188e-006 -4.6773e-006 -1.1581 -3.81389 -9.37196 -0.0766697 7.96022e-007 4.09513e-006 -0.137415 20.0604 69.843 -21.1761 -8.13649 25.2327 3.48773 
